<svg xmlns="http://www.w3.org/2000/svg" viewBox="0 0 946.32 255.55"><defs><style>.cls-1{fill:#543447;}</style></defs><g id="Layer_2" data-name="Layer 2"><g id="Layer_1-2" data-name="Layer 1"><g id="fullLogo"><path class="cls-1" d="M212.54,156.27l4.12.18-4.84,94.44H0v-4.12H28.85V4.12H0V0H120.61V4.12H91.93V246.77h26.88c67.92,0,91-44.09,93-78.5Z"/><circle class="cls-1" cx="14.53" cy="31.05" r="6.71"/><circle class="cls-1" cx="14.53" cy="68.81" r="6.71"/><circle class="cls-1" cx="14.53" cy="106.57" r="6.71"/><circle class="cls-1" cx="14.53" cy="144.32" r="6.71"/><circle class="cls-1" cx="14.53" cy="182.08" r="6.71"/><circle class="cls-1" cx="14.53" cy="219.84" r="6.71"/><path class="cls-1" d="M413.35,246.77H437v4.12c-26.7,0-52.33,1.07-78.67,3.22v-36.2c-6.09,16.31-22.58,37.64-55.55,37.64-38.53,0-52.51-28-52.51-61.83V89.78H226.62V85.66c26.7,0,52.32-1.08,78.67-5V214.15c0,18.28,6.81,28.49,21,28.49,16.85,0,28.14-19.71,32.08-36V89.78H334.68V85.66c26.7,0,52.32-1.08,78.67-5Z"/><path class="cls-1" d="M728.75,246.77h23.84v4.12H655.46v-4.12h18.46V124.91c0-22-5.74-30.47-16.67-30.47-19.89,0-31.54,28.32-31.54,47.85V246.77h17.74v4.12H552.24v-4.12H570.7V124.91c0-22.58-7.17-30.47-17.21-30.47-19.53,0-31,27.42-31,43.19V246.77h17.74v4.12H443.82v-4.12h23.65v-157H443.82V85.66c25.09,0,52.15-.9,78.67-5v38.53C528.76,100.71,545.79,81,576.43,81c28.49,0,44.09,16.13,48,44.44C629.3,103.58,647,81,679.47,81c33.87,0,49.28,22.58,49.28,60.21Z"/><path class="cls-1" d="M946.32,231.53c-7.7,12.91-21.86,24-43.54,24-21.87,0-34.77-11.47-38.71-29.21-6.27,17.38-29.39,29.21-51.79,29.21-23.66,0-48.39-12.91-48.39-42.65,0-26,18.46-31.72,55.56-40.86C838.8,167.2,865,159.67,865,127.59c0-26.52-17-40.32-42.66-40.32-26.16,0-43.54,15.06-44.26,32.26,2-7.53,9.14-17.2,22.22-17.2,14,0,23.12,10.75,23.12,23.47a23.45,23.45,0,0,1-23.84,23.66c-13.26,0-25.44-9.32-25.44-27.42,0-24.73,23.12-41,64-41,53.77,0,80.47,27.78,80.47,80.46v70.43c0,6.1,2.51,10,8.24,10,5.91,0,11.47-4.12,16.85-13.26Zm-82.61-82.61c-5.38,12.54-20.07,20.43-40,26.52-2.15,3.95-5.38,15.23-5.38,31,0,25.09,9.14,35.13,20.43,35.13,14.88,0,24-16.85,24.91-22.94Z"/></g></g></g></svg>