<svg xmlns="http://www.w3.org/2000/svg" viewBox="0 0 1217.68 297.92"><defs><style>.cls-1{fill:#505f43;}.cls-2{fill:none;stroke:#313e2b;stroke-miterlimit:10;stroke-width:4px;}</style></defs><g id="Layer_2" data-name="Layer 2"><g id="New_Luma" data-name="New Luma"><path class="cls-1" d="M226.69,190.38l4.61.2-5.21,102.13H0v-4.6H33.64V17H0V12.35H126.56V17H92.72V288.11H130c71.69,0,93.72-44.66,95.92-83.51Z"/><path class="cls-1" d="M496.64,288.11h28.64v4.6c-27.43,0-52.27,1-79.1,3.61V250.66C440,270.29,423,297.92,385.1,297.92c-42.25,0-56.87-32-56.87-71.49V112.68H299.79v-4.6c27.44,0,52.27-1,78.9-5.61V249.66c0,24.63,9.42,36.25,26.64,36.25,22.63,0,37.45-29.44,40.85-50.27v-123H417.74v-4.6c27.44,0,52.27-1,78.9-5.61Z"/><path class="cls-1" d="M896,288.11H924.6v4.6H822.27v-4.6H845.5V152.93c0-28.23-6.81-37.84-20.42-37.84-27.24,0-40.66,38.65-40.66,59.87V288.11h21.83v4.6H710.53v-4.6h23.23V152.93c0-28.83-8.81-37.84-21.23-37.84-26.43,0-40,39-40,57.27V288.11h22v4.6H593.38v-4.6H622V112.68H593.38v-4.6c26.43,0,52.27-1,79.1-5.61v48.26c6.81-22.63,24.43-47.86,59.88-47.86,30.84,0,47.26,18.83,51.06,52.07,5.81-24.63,23.83-52.07,60.48-52.07C880,102.87,896,128.3,896,171.16Z"/><path class="cls-1" d="M1189.35,273.09c-7.81,14-21.23,24.83-42.25,24.83-23.43,0-35.65-13.82-38.45-32.24-7.41,19.42-31.24,32.24-55.47,32.24-25.64,0-55.07-13.62-55.07-47.66,0-28.24,19-34.24,56.87-45.26,26.63-7.61,54.67-17.22,54.67-51.87,0-27.63-16.62-43.85-46.66-43.85-30.64,0-48.26,18.22-48.86,36.25,2.2-8.42,9.21-17.83,22.23-17.83,14,0,23,10.82,23,23.43C1059.39,164,1050,175,1036,175c-13.42,0-25.84-9.61-25.84-27.83,0-26.24,25-44.26,66.09-44.26,53.87,0,82.7,30.64,82.7,82.91v88.51c0,6.21,2.81,10.61,9.21,10.61s12.82-4.6,18.23-15.22Zm-80.9-96.92c-7.21,17-26,25.43-52.87,33.64-2.6,3.8-7.21,16.22-7.21,34.84,0,30.64,12.82,41.26,26.84,41.26,19.42,0,32-20.43,33.24-29.64Z"/><path class="cls-2" d="M252.71,181.36l4.61.21L251.91,290H15.21v-4.73H47.45V6.73H15.21V2H150V6.73h-32V285.24h30c75.89,0,101.73-50.6,103.93-90.09Z"/><path class="cls-2" d="M522.48,285.24h26.43V290c-29.83,0-58.47,1.23-87.91,3.7V252.12c-6.81,18.72-25.23,43.2-62.08,43.2-43.05,0-58.67-32.09-58.67-71V105.05H313.81v-4.73c29.84,0,58.48-1.23,87.92-5.76V247.8c0,21,7.61,32.71,23.43,32.71,18.82,0,31.44-22.63,35.84-41.35V105.05H434.57v-4.73c29.84,0,58.47-1.23,87.91-5.76Z"/><path class="cls-2" d="M926,285.24h26.63V290H844.11v-4.73h20.63V145.37c0-25.3-6.41-35-18.63-35-22.23,0-35.24,32.5-35.24,54.92V285.24h19.82V290H728.76v-4.73h20.63V145.37c0-25.92-8-35-19.23-35-21.82,0-34.64,31.47-34.64,49.57V285.24h19.83V290H607.61v-4.73H634V105.05H607.61v-4.73c28,0,58.27-1,87.91-5.76v44.23c7-21.19,26-43.82,60.28-43.82,31.84,0,49.26,18.52,53.67,51,5.4-25.09,25.23-51,61.47-51C908.79,95,926,120.89,926,164.09Z"/><path class="cls-2" d="M1215.22,267.75c-8.62,14.81-24.44,27.57-48.67,27.57-24.43,0-38.85-13.17-43.25-33.53-7,19.95-32.84,33.53-57.88,33.53-26.43,0-54.07-14.81-54.07-49,0-29.82,20.63-36.4,62.08-46.9,21.63-5.55,50.87-14.19,50.87-51,0-30.44-19-46.28-47.66-46.28-29.24,0-48.66,17.28-49.46,37,2.2-8.64,10.21-19.75,24.83-19.75,15.62,0,25.83,12.34,25.83,27,0,15.22-11.61,27.15-26.63,27.15-14.82,0-28.44-10.7-28.44-31.47,0-28.39,25.83-47.11,71.49-47.11,60.08,0,89.92,31.89,89.92,92.36v80.84c0,7,2.8,11.51,9.21,11.51,6.61,0,12.81-4.73,18.82-15.22Zm-92.32-94.82c-6,14.4-22.43,23.45-44.66,30.44-2.4,4.53-6,17.49-6,35.59,0,28.79,10.22,40.31,22.83,40.31,16.62,0,26.84-19.33,27.84-26.33Z"/></g></g></svg>