<svg xmlns="http://www.w3.org/2000/svg" viewBox="0 0 1162.69 302.72"><defs><style>.cls-1{fill:#505f43;}.cls-2{fill:#313e2b;}</style></defs><g id="Layer_2" data-name="Layer 2"><g id="New_Luma" data-name="New Luma"><path class="cls-1" d="M230.48,197.43l4.6.2-.8,98.73H18v-4.61H53.25V20.61H18V16H136.55v4.61H101.31V291.75h44.45c61.68,0,80.91-33.84,83.72-79.5Z"/><path class="cls-1" d="M492.42,291.75h30.43v4.61a627.65,627.65,0,0,0-70.49,3.6V248.3c-5.6,21.23-21,53.27-60.27,53.27-41.26,0-55.27-32.65-55.27-73.9V116.33H306.38v-4.61c25,0,46.46-1,70.49-5.6V251.3c0,28.64,11,40.65,29.84,40.65,27.23,0,44.65-40,45.65-62.68V116.33H421.72v-4.61c25.24,0,46.46-1,70.7-5.6Z"/><path class="cls-1" d="M878.92,291.75h30.44v4.61H813v-4.61h25.83V157.38c0-31.44-7.41-41.25-22.23-41.25-32,0-46.06,45.46-46.06,65.88V291.75h23.83v4.61H704.7v-4.61h25.63V157.38c0-32.24-9.61-41.25-23.23-41.25C676.46,116.13,662,162.79,662,182V291.75h23.83v4.61H591.35v-4.61H622V116.33H591.35v-4.61c25,0,46.26-.8,70.69-5.6V159c7-24.43,23.23-52.46,59.28-52.46,30.24,0,45.46,19.82,48.46,55.07,6.21-24.84,22.43-55.07,59.88-55.07,34.44,0,49.26,25.63,49.26,69.28Z"/><path class="cls-1" d="M1162.69,278.54c-7,13.61-18.42,23-36.24,23-22.63,0-32.44-14.82-33.65-32-8,19.62-29.63,32-53.46,32-24.84,0-56.08-13-56.08-47.86,0-26.64,17-33.25,52.07-44.66,29.44-9.41,58.48-19.43,58.48-54.07,0-25.63-14.42-42.46-45.66-42.46-32,0-48.27,19.23-48.27,36.05,2-8,8-16.42,19.63-16.42,12.42,0,20.43,10,20.43,21,0,10.81-7.61,21.22-20.63,21.22-12.22,0-23.43-8.81-23.43-25.43,0-24.63,24.43-42.45,61.08-42.45,48.06,0,75.7,30.44,75.7,76.29v97.73c0,5.61,3,10.21,9.21,10.21,6.41,0,12.81-4.8,17.82-15.42ZM1092.6,177.21c-8.21,19.82-29.43,28-60.67,37.65-3,3.2-8.21,15.41-8.21,35,0,32.84,15,43.06,30.43,43.06,22.23,0,37-22,38.45-33.25Z"/><path class="cls-2" d="M121.55,3V7.73H86.31V286.28h44.45c61.68,0,81.91-34.77,84.72-81.67l1-15.23,4.6.21L219.28,291H3v-4.73H36.25V7.73H3V3H121.55m3-3H0V10.73H33.25V283.28H0V294H222.22l.06-2.95,1.8-101.42,0-2.92-2.91-.13-4.61-.2-2.93-.13-.2,2.93-1,15.22c-3.21,53.81-29.18,78.87-81.72,78.87H89.31V10.73h35.24V0Z"/><path class="cls-2" d="M477.42,95.58v190.7h28.43V291c-25,0-31.46,1-55.49,3.7l.27-53.39c-7.9,21.75-15.51,56.88-62,56.88-48.53,0-66.83-35.37-66.83-77.75V106.07H291.38v-4.74c25,0,46.46-1,70.49-5.75V244.72c0,29.42,15,41.76,33.84,41.76,37.06,0,40.65-41.14,41.65-64.39v-116H406.72v-4.74c25.24,0,46.46-1,70.7-5.75M364.87,91.93l-3.58.7c-24,4.74-45.34,5.7-69.91,5.7h-3v10.74h30.44V220.45c0,51.32,25.45,80.75,69.83,80.75,19.71,0,34.54-6,45.31-18.36,6.28-7.19,10.41-15.76,13.58-23.9l-.18,35.76v3.37l3.35-.38,6.55-.73c19.05-2.15,26.18-2.95,48.6-2.95h3V283.28H480.42V91.93l-3.58.7c-24.25,4.73-45.56,5.7-70.12,5.7h-3v10.74h30.64V222c-1.24,28.63-6.76,61.45-38.65,61.45-19.6,0-30.84-14.12-30.84-38.76V91.93Z"/><path class="cls-2" d="M653,95.58v54.31c7-25.1,28.23-53.9,64.28-53.9,30.24,0,45.46,13.36,48.46,49.57C772,120.05,788.21,96,825.66,96c34.44,0,49.26,26.33,49.26,71.18V286.28h23.44V291H809v-4.73h15.83v-138c0-26.73-7-34.61-18.25-34.61a36.29,36.29,0,0,0-7.57.92c-20.57,4.46-34.29,48.3-35.47,59V286.28h19.83V291H700.7v-4.73h15.63v-138c0-23.54-8.36-35.07-19.55-35.07-4.55,0-9.57,1.91-14.68,5.69C670.29,127.6,657,157,653,179.54V286.28h21.83V291H587.35v-4.73H610V106.07H587.35v-4.74c25,0,41.26-.82,65.69-5.75m3-3.67-3.59.72c-24,4.85-40.11,5.7-65.1,5.7h-3v10.74H607V283.28H584.35V294h93.52V283.28H656V179.81c4.06-22.89,17.29-50.73,27.84-58.54,4.52-3.34,9-5.1,12.9-5.1,10.21,0,16.55,12.29,16.55,32.07v135H697.7V294h88.71V283.28H766.58V173.71c.61-5.13,4.22-18.27,10.17-30.71,7.07-14.78,15.22-23.84,22.94-25.52a33.29,33.29,0,0,1,6.93-.85c7.54,0,15.25,3.75,15.25,31.61v135H806V294h95.32V283.28H877.92V167.17c0-23.55-4.11-41.73-12.21-54.06C856.94,99.76,843.46,93,825.66,93c-34.14,0-50.72,19.11-58.73,39.07-2.44-11.87-6.75-20.76-13.06-27C745.65,96.94,733.69,93,717.32,93c-30.63,0-50.81,19.61-61.28,40.76V91.91Z"/><path class="cls-2" d="M1042,92c48.06,0,75.7,35.27,75.7,82.38V274.76c0,5.76,3,10.49,9.21,10.49,6.41,0,12.81-4.94,17.82-15.84l3,3.29c-7,14-18.42,23.66-36.24,23.66-2.64,0-24.64-3.41-25.84-21.1-9.62,16.34-28.86,24.46-52.49,24.46q-4.3,0-8.78-.36c-24.76-2-56.08-16.37-56.08-52.17,0-27.36,17-34.15,52.07-45.87,29.44-9.67,58.48-20,58.48-55.55,0-25-11.78-42.77-39.7-42.78-1.46,0-3,.05-4.52.15-21.52,1.37-36.71,18.77-36.71,36.05,1.73-7.07,7.89-12.86,17-12.86a23.65,23.65,0,0,1,4.68.49c6.45,1.3,15.72,8.21,13,21.84-2.2,10.89-8.16,17.07-21.18,17.07-12.22,0-22.88-9.12-21.43-26.13C992.72,106.12,1017.25,92,1042,92m-2.81,195.52c22.23,0,42-22.63,43.45-34.15V184.08c-14.26,17.16-34.43,20.33-65.67,30.2-3,3.29-8.21,8.84-8.21,29,0,33.74,15,44.23,30.43,44.23M1042,89c-13.76,0-26.59,4.23-36.12,11.91-11,8.88-17.57,22.17-19,38.45-.95,11.19,3,18,6.43,21.79a24.07,24.07,0,0,0,18,7.59c13.58,0,21.47-6.37,24.12-19.48,1.77-8.72-1-14.59-3.59-18a20.42,20.42,0,0,0-11.72-7.41,26.79,26.79,0,0,0-5.27-.54,21.18,21.18,0,0,0-10.83,2.89,36.3,36.3,0,0,1,30.76-20.08c1.48-.1,2.93-.15,4.32-.15,30.34,0,36.71,21.64,36.71,39.78,0,34.17-28.68,43.59-56.42,52.7-35.57,11.9-54.13,19.47-54.13,48.72,0,17,6.9,31.22,19.94,41.15,13.91,10.6,30.34,13.33,38.9,14,3.05.24,6.09.37,9,.37,22.58,0,40.43-7.13,51.11-20.23,5.59,13.56,23.55,16.87,27.22,16.87,17.41,0,30.51-8.52,38.93-25.32l.92-1.84-1.39-1.52-3-3.29-3.06-3.35-1.89,4.12c-4.17,9.09-9.53,14.09-15.09,14.09s-6.21-5.24-6.21-7.49V174.37c0-24.48-7.12-45.52-20.58-60.84C1086,97.47,1065.88,89,1042,89ZM1018.6,216.9c5.26-1.65,10.15-3.1,14.89-4.51,19.59-5.81,34.49-10.23,46.11-20.83v61.61c-.61,4.31-4.87,12.14-12.91,19.36-5,4.47-15.2,12-27.54,12-17.69,0-27.43-14.64-27.43-41.23,0-17.8,4.11-23.29,6.88-26.38Z"/></g></g></svg>