<svg xmlns="http://www.w3.org/2000/svg" viewBox="0 0 1350.25 298.88"><defs><style>.cls-1{fill:#505f43;}.cls-2{fill:none;stroke:#313e2b;stroke-miterlimit:10;stroke-width:3px;}</style></defs><g id="Layer_2" data-name="Layer 2"><g id="Layer_1-2" data-name="Layer 1"><path class="cls-1" d="M1314.92,286.66h25.83v4.61H1221.6v-4.61H1251l-36.25-97.72h-80.91c-7.2,23.63-10.41,41.85-10.41,55.67,0,33.44,17.82,42.05,37.85,42.05h1.4v4.61H1060.79v-4.61h.4c23.83,0,40.85-21.43,64.28-87.91l67.89-193h16.22ZM1213,184.33,1173.13,77l-34,96.13c-1.2,3.4-2,5.8-3.8,11.21Z"/><path class="cls-1" d="M994.29,15.51H960.65V286.66h33.64v4.61H867.73v-4.61h33.84V21.72L813.66,291.27H798.24L699.32,25.13v159.2c0,75.5,17.62,102.33,48.46,102.33h2.4v4.61H645.85v-4.61h2.4c28.44,0,46.26-26,46.26-102.33V15.51H657.06v-4.6H758l75.5,202.86L900,10.91h94.32Z"/><path class="cls-1" d="M591.37,10.91v4.6H589c-27,0-46.46,26.44-46.46,102.14v70.89c0,82.3-40.46,110.34-103.94,110.34-65.88,0-107.74-30.24-107.74-101.33v-182H297.19v-4.6H423.35v4.6H389.91v185c0,56.87,17,89.32,67.29,89.32,48.86,0,80.5-29.24,80.5-100.93V117.65c0-75.1-17.82-102.14-47.66-102.14h-3v-4.6Z"/><path class="cls-1" d="M226.69,188.94l4.61.2-5.21,102.13H0v-4.61H33.64V15.51H0v-4.6H126.56v4.6H92.72V286.66H130c71.69,0,93.72-44.66,95.92-83.51Z"/><path class="cls-2" d="M1322.92,282.46h25.83v4.61H1229.6v-4.61H1259l-36.25-97.73h-80.91c-7.2,23.63-10.41,41.86-10.41,55.68,0,33.44,17.82,42,37.85,42h1.4v4.61H1068.79v-4.61h.4c23.83,0,40.85-21.43,64.28-87.91l67.89-193h16.22ZM1221,180.13,1181.13,72.79l-34,96.12c-1.2,3.41-2,5.81-3.8,11.22Z"/><path class="cls-2" d="M1002.29,11.31H968.65V282.46h33.64v4.61H875.73v-4.61h33.84V17.52L821.66,287.07H806.24L707.32,20.92V180.13c0,75.49,17.62,102.33,48.46,102.33h2.4v4.61H653.85v-4.61h2.4c28.44,0,46.26-26,46.26-102.33V11.31H665.06V6.71H766l75.5,202.86L908,6.71h94.32Z"/><path class="cls-2" d="M599.37,6.71v4.6H597c-27,0-46.46,26.44-46.46,102.13v70.89c0,82.31-40.46,110.34-103.94,110.34-65.88,0-107.74-30.23-107.74-101.32v-182H305.19V6.71H431.35v4.6H397.91v185c0,56.87,17,89.31,67.29,89.31,48.86,0,80.5-29.23,80.5-100.93V113.44c0-75.09-17.82-102.13-47.66-102.13h-3V6.71Z"/><path class="cls-2" d="M234.69,184.73l4.61.2-5.21,102.14H8v-4.61H41.64V11.31H8V6.71H134.56v4.6H100.72V282.46H138c71.69,0,93.72-44.66,95.92-83.51Z"/></g></g></svg>