<svg xmlns="http://www.w3.org/2000/svg" viewBox="0 0 613.96 717.96"><defs><style>.cls-1,.cls-2,.cls-3{fill:none;stroke:#505F43;stroke-miterlimit:10;}.cls-1,.cls-2{stroke-width:30px;}.cls-2,.cls-3{stroke-linecap:round;}.cls-3{stroke-width:20px;}</style></defs><g id="Layer_2" data-name="Layer 2"><g id="Layer_1-2" data-name="Layer 1"><path class="cls-1" d="M485.3,694h-353a41.72,41.72,0,0,1-41.72-41.72l-30-471.53A41.72,41.72,0,0,1,102.26,139h413A41.72,41.72,0,0,1,557,180.71L527,652.24A41.72,41.72,0,0,1,485.3,694Z"/><line class="cls-2" x1="24" y1="138.99" x2="589.96" y2="138.99"/><path class="cls-2" d="M203.56,24H413.72a32.57,32.57,0,0,1,32.57,32.57V139a0,0,0,0,1,0,0H171a0,0,0,0,1,0,0V56.57A32.57,32.57,0,0,1,203.56,24Z"/><line class="cls-3" x1="185.61" y1="245.53" x2="201.94" y2="587.41"/><line class="cls-3" x1="308.78" y1="245.53" x2="308.78" y2="587.41"/><line class="cls-3" x1="431.94" y1="245.53" x2="415.61" y2="587.41"/></g></g></svg>