<svg xmlns="http://www.w3.org/2000/svg" viewBox="0 0 1210.23 303.32"><defs><style>.cls-1{fill:#505f43;}.cls-2{fill:#313e2b;}</style></defs><g id="Layer_2" data-name="Layer 2"><g id="New_Luma" data-name="New Luma"><path class="cls-1" d="M226.69,192.38l8.61.2-.21,101.13L0,294.71v-4.6H33.64V19H0V14.35H126.56V19H92.72V290.11H130c71.69,0,93.72-44.66,95.92-83.51Z"/><path class="cls-1" d="M496.64,290.11h28.64v4.6c-27.43,0-52.27,1-79.1,3.61V259.66C440,279.29,423,299.92,385.1,299.92c-42.25,0-56.87-32-56.87-71.49V114.68H299.79v-4.6c27.44,0,52.27-1,78.9-5.61V251.66c0,24.63,9.42,36.25,26.64,36.25,22.63,0,37.45-22.44,40.85-43.27v-130H417.74v-4.6c27.44,0,52.27-1,78.9-5.61Z"/><path class="cls-1" d="M896,290.11H924.6v4.6H822.27v-4.6H845.5V154.93c0-28.23-6.81-37.84-20.42-37.84-27.24,0-40.66,38.65-40.66,59.87V290.11h21.83v4.6H710.53v-4.6h23.23V154.93c0-28.83-8.81-37.84-21.23-37.84-26.43,0-40,39-40,57.27V290.11h22v4.6H593.38v-4.6H622V114.68H593.38v-4.6c26.43,0,52.27-1,79.1-5.61v48.26c6.81-22.63,24.43-47.86,59.88-47.86,30.84,0,47.26,18.83,51.06,52.07,5.81-24.63,23.83-52.07,60.48-52.07C880,104.87,896,130.3,896,173.16Z"/><path class="cls-1" d="M1189.35,274.09c-7.81,14-21.23,24.83-42.25,24.83-23.43,0-35.65-13.82-38.45-32.24-7.41,19.42-31.24,32.24-55.47,32.24-25.64,0-55.07-13.62-55.07-47.66,0-28.24,19-34.24,56.87-45.26,26.63-7.61,54.67-17.22,54.67-51.86,0-27.64-16.62-43.86-46.66-43.86-30.64,0-48.26,18.22-48.86,36.25,2.2-8.42,9.21-17.83,22.23-17.83,14,0,23,10.82,23,23.43C1059.39,165,1050,176,1036,176c-13.42,0-25.84-9.61-25.84-27.83,0-26.24,25-44.26,66.09-44.26,53.87,0,82.7,30.64,82.7,82.91v88.51c0,6.21,2.81,10.61,9.21,10.61s12.82-4.6,18.23-15.22Zm-80.9-96.92c-7.21,17-26,25.43-52.87,33.64-2.6,3.8-7.21,16.22-7.21,34.84,0,30.64,12.82,41.26,26.84,41.26,19.42,0,32-20.43,33.24-29.64Z"/><path class="cls-2" d="M150,4v6.73h-32V286.24h30c75.89,0,86.73-49.6,88.93-89.09l.8-13.79,11.61.21L250.91,291H15.21v-4.73H47.45V10.73H15.21V4H150m4-4H11.21V14.73H43.45V282.24H11.21V295H255l-.06-4.06-1.59-107.4-.06-3.87-3.87-.07-11.61-.21-3.84-.06-.22,3.83-.8,13.78c-1,17.62-3.7,40-16.09,57.26-13.59,18.89-36.11,28.07-68.85,28.07h-26V14.73h32V0Z"/><path class="cls-2" d="M520.48,96.56V287.24h26.43V292c-29.83,0-56.47,1.23-85.91,3.7V245.12c-6.81,18.72-3.64,52.2-62.08,52.2-43.05,0-58.67-32.09-58.67-71V107.05H313.81v-5.73c29.84,0,58.48-.23,87.92-4.76V232.8c0,21,1,43.71,23.43,43.71,24.37,0,31.44-26.63,35.84-45.35V107.05H434.57v-5.73c29.84,0,56.47-.23,85.91-4.76m4-4.66-4.61.71c-28.4,4.36-54.34,4.71-85.3,4.71h-4v13.73H457V230.7c-4.81,20.31-11.69,41.81-31.84,41.81-8.43,0-13.48-3.51-16.37-11.37-2.83-7.68-3.06-18.21-3.06-28.34V91.9l-4.61.71c-28.4,4.36-55.21,4.71-87.31,4.71h-4v13.73h26.44v115.3c0,21.94,4.69,39.57,13.94,52.4,10.8,15,27.19,22.57,48.73,22.57,38,0,51.65-13.88,58.08-28.78V300l4.34-.36c30.41-2.55,56.81-3.69,85.57-3.69h4V283.24H524.48V91.9Z"/><path class="cls-2" d="M691,95.56l.53,31.31c6.81-21.19,25.82-30.9,54-30.9,19.54,0,46.6,7.24,50.88,39.74,5.25-25.09,39.1-39.74,60-39.74,39.4,0,60.49,25.92,60.49,69.12V286.24h21.87V291H842.32v-4.73h20V146.37c0-25.3-10.22-35-22.09-35-21.59,0-36.23,32.5-36.23,54.92V286.24h16.25V291h-90v-4.73h20V146.37c0-25.92-12.78-35-23.68-35C705.44,111.4,691,142.87,691,161V286.24h14.26V291H607.61v-4.73h25.67V106.05H607.61v-4.73c27.26,0,54.87-1.07,83.38-5.76m3.93-4.7-4.57.76c-30.78,5-60.39,5.7-82.74,5.7h-4v12.73h25.67V282.24H603.61V295H709.25V282.24H695V161c0-16,13.06-45.57,31.65-45.57a16.47,16.47,0,0,1,12.84,6.32c4.47,5.39,6.84,13.92,6.84,24.65V282.24h-20V295h98V282.24H808V166.32c0-20.5,13.53-50.92,32.23-50.92,11.5,0,18.09,11.29,18.09,31V282.24h-20V295H942.74V282.24H920.87V165.09c0-22.71-5.53-40.66-16.44-53.36C893.18,98.62,877,92,856.38,92c-11.64,0-26.14,4.22-37.84,11-9.38,5.44-16.6,12.23-21.17,19.78a43.09,43.09,0,0,0-18.6-22.52C767.45,93.41,754.45,92,745.54,92c-15,0-27.42,2.7-37,8a43.92,43.92,0,0,0-13.3,11.23L695,95.5l-.07-4.64Z"/><path class="cls-2" d="M1087.87,98c58.35,0,87.33,32.89,87.33,93.36v80.84c0,7,2.72,11.51,9,11.51,6.41,0,12.44-4.73,18.28-15.22l2.92,3.29c-8.37,14.81-23.73,27.57-47.27,27.57-23.72,0-37.73-13.17-42-33.53-6.8,19.95-31.89,33.53-56.2,33.53-25.68,0-52.52-14.81-52.52-49,0-29.82,20-36.4,60.3-46.9,21-5.55,49.4-14.19,49.4-51,0-30.44-18.48-46.28-46.29-46.28-28.4,0-47.26,17.28-48,37,2.14-8.64,9.92-19.75,24.12-19.75,15.17,0,25.09,12.34,25.09,27,0,15.22-11.29,27.15-25.87,27.15-14.39,0-27.62-10.7-27.62-31.47,0-28.39,25.09-48.11,69.43-48.11m.78,185.3c16.14,0,26.06-19.33,27-26.33v-80c-5.84,14.4-21.79,23.45-43.38,30.44-2.33,4.53-5.83,17.49-5.83,35.59,0,28.79,9.92,40.31,22.17,40.31M1087.87,94c-22.2,0-40.77,4.9-53.67,14.16s-19.76,22.4-19.76,38c0,24.37,16.39,35.47,31.62,35.47,16.75,0,29.87-13.69,29.87-31.15,0-17.65-12.51-30.95-29.09-30.95a28.71,28.71,0,0,0-8.15,1.15c8-6.49,19.26-10.43,32.07-10.43,26.87,0,42.29,15.41,42.29,42.28,0,32.18-22.94,40.94-46.43,47.15-20.48,5.34-35.81,9.66-46.43,16.73-11.64,7.75-16.84,18.25-16.84,34,0,16.91,6.27,30.87,18.13,40.4,10.07,8.1,23.71,12.56,38.39,12.56a74.27,74.27,0,0,0,36.67-9.82,55.69,55.69,0,0,0,18.63-17,42.38,42.38,0,0,0,12,16.75c8,6.67,18.39,10.06,30.86,10.06,29.61,0,44.51-18.55,50.75-29.6l1.4-2.48-1.89-2.14-2.92-3.29-3.74-4.22-2.75,4.93c-4.86,8.74-9.83,13.16-14.78,13.16-1.61,0-5,0-5-7.51V191.33c0-63.69-31.58-97.36-91.33-97.36Zm-12.64,116.66c16.91-5.65,28.85-12.28,36.46-20.36v66.37c-1,5.6-9.55,22.63-23,22.63-11.55,0-18.17-13.23-18.17-36.31,0-15.47,2.64-27.14,4.75-32.33Z"/></g></g></svg>