<svg xmlns="http://www.w3.org/2000/svg" viewBox="0 0 1623.75 613.89"><defs><style>.cls-1{fill:#fce7d9;}.cls-2{fill:#505f43;}.cls-3{fill:#313e2b;}</style></defs><g id="Layer_2" data-name="Layer 2"><g id="New_Luma" data-name="New Luma"><rect class="cls-1" width="1623.75" height="613.89" rx="59.74"/><path class="cls-2" d="M435.9,347.37l8.6.2-.21,101.13-235.09,1v-4.61h33.65V174H209.2v-4.61H335.77V174H301.92V445.09h37.25c71.69,0,93.72-44.65,95.92-83.5Z"/><path class="cls-2" d="M705.85,445.09h28.64v4.61c-27.44,0-52.27,1-79.1,3.6V414.64c-6.21,19.63-23.24,40.27-61.08,40.27-42.26,0-56.88-32.05-56.88-71.5V269.67H509v-4.61c27.43,0,52.26-1,78.9-5.6V406.64c0,24.63,9.41,36.25,26.63,36.25,22.63,0,37.45-22.44,40.86-43.26v-130H627v-4.61c27.43,0,52.27-1,78.9-5.6Z"/><path class="cls-2" d="M1105.17,445.09h28.64v4.61H1031.48v-4.61h23.23V309.92c0-28.24-6.81-37.85-20.43-37.85-27.24,0-40.65,38.65-40.65,59.88V445.09h21.83v4.61H919.73v-4.61H943V309.92c0-28.84-8.81-37.85-21.22-37.85-26.44,0-40.06,39.05-40.06,57.27V445.09h22v4.61H802.58v-4.61h28.64V269.67H802.58v-4.61c26.44,0,52.27-1,79.1-5.6v48.26c6.81-22.63,24.44-47.86,59.88-47.86,30.84,0,47.26,18.82,51.07,52.06,5.8-24.63,23.83-52.06,60.47-52.06,36.05,0,52.07,25.43,52.07,68.28Z"/><path class="cls-2" d="M1398.56,429.07c-7.81,14-21.23,24.84-42.26,24.84-23.43,0-35.64-13.82-38.45-32.25-7.41,19.43-31.24,32.25-55.47,32.25-25.63,0-55.07-13.62-55.07-47.67,0-28.23,19-34.24,56.88-45.25,26.63-7.61,54.67-17.23,54.67-51.87,0-27.64-16.63-43.86-46.67-43.86-30.63,0-48.26,18.23-48.86,36.25,2.21-8.41,9.21-17.82,22.23-17.82,14,0,23,10.81,23,23.43,0,12.81-9.41,23.83-23.43,23.83-13.42,0-25.83-9.61-25.83-27.84,0-26.23,25-44.25,66.08-44.25,53.87,0,82.71,30.63,82.71,82.9v88.51c0,6.21,2.8,10.62,9.21,10.62s12.82-4.61,18.22-15.22Zm-80.91-96.92c-7.21,17-26,25.43-52.86,33.64-2.61,3.81-7.21,16.22-7.21,34.85,0,30.64,12.81,41.25,26.83,41.25,19.43,0,32-20.43,33.24-29.64Z"/><path class="cls-3" d="M359.18,159v6.74h-32v275.5h30c75.9,0,86.73-49.6,88.93-89.09l.8-13.78,11.61.2L460.11,446H224.41v-4.73h32.24V165.72H224.41V159H359.18m4-4H220.41v14.74h32.24v267.5H220.41V450H464.17l-.06-4.06-1.59-107.4-.06-3.87-3.87-.07-11.6-.2-3.85-.07-.22,3.84-.8,13.78c-1,17.61-3.7,40-16.08,57.25-13.59,18.89-36.12,28.07-68.86,28.07h-26V169.72h32V155Z"/><path class="cls-3" d="M729.69,251.55V442.22h26.43V447c-29.84,0-56.48,1.24-85.91,3.71V400.11c-6.81,18.71-3.64,52.19-62.08,52.19-43.06,0-58.68-32.09-58.68-71V262H523v-5.73c29.84,0,58.47-.24,87.91-4.76V387.79c0,21,1,43.7,23.43,43.7,24.37,0,31.44-26.62,35.85-45.34V262H643.77v-5.73c29.84,0,56.48-.24,85.92-4.76m4-4.66-4.61.7c-28.4,4.37-54.34,4.72-85.31,4.72h-4V266h26.44V385.68c-4.81,20.32-11.69,41.81-31.85,41.81-8.43,0-13.48-3.5-16.37-11.36-2.82-7.68-3.06-18.21-3.06-28.34V246.89l-4.61.7c-28.4,4.37-55.21,4.72-87.3,4.72h-4V266h26.43v115.3c0,21.93,4.69,39.56,13.95,52.4,10.79,15,27.19,22.56,48.73,22.56,38,0,51.64-13.87,58.08-28.77V455l4.33-.37C701,452.09,727.35,451,756.12,451h4V438.22H733.69V246.89Z"/><path class="cls-3" d="M900.2,250.55l.52,31.3c6.81-21.18,25.83-30.89,54-30.89,19.55,0,46.6,7.24,50.88,39.74,5.25-25.1,39.1-39.74,60-39.74,39.4,0,60.49,25.92,60.49,69.11V441.22h21.87V446h-96.42v-4.73h20V301.35c0-25.3-10.22-35-22.08-35-21.59,0-36.24,32.5-36.24,54.92V441.22h16.26V446h-90v-4.73h20V301.35c0-25.92-12.78-35-23.67-35-21.2,0-35.65,31.48-35.65,49.58V441.22h14.25V446H816.81v-4.73h25.68V261H816.81v-4.73c27.27,0,54.87-1.08,83.39-5.76m3.92-4.7-4.57.75c-30.78,5.06-60.38,5.71-82.74,5.71h-4V265h25.68V437.22H812.81V450H918.45V437.22H904.2V316c0-16,13-45.58,31.65-45.58a16.48,16.48,0,0,1,12.84,6.32c4.47,5.4,6.83,13.92,6.83,24.65V437.22h-20V450h98V437.22h-16.26V321.3c0-20.5,13.54-50.92,32.24-50.92,11.49,0,18.08,11.29,18.08,31V437.22h-20V450h104.42V437.22h-21.87V320.07c0-22.7-5.53-40.66-16.43-53.36-11.25-13.11-27.42-19.75-48.06-19.75-11.63,0-26.13,4.21-37.84,11-9.38,5.44-16.6,12.23-21.16,19.77A43.1,43.1,0,0,0,988,255.22c-11.32-6.83-24.32-8.26-33.23-8.26-15,0-27.41,2.69-37,8a43.56,43.56,0,0,0-13.31,11.23l-.26-15.72-.08-4.63Z"/><path class="cls-3" d="M1297.08,253c58.34,0,87.32,32.88,87.32,93.35v80.84c0,7,2.73,11.52,8.95,11.52,6.42,0,12.45-4.73,18.28-15.22l2.92,3.29c-8.36,14.81-23.73,27.56-47.26,27.56-23.73,0-37.73-13.16-42-33.53-6.81,20-31.9,33.53-56.21,33.53-25.67,0-52.51-14.81-52.51-48.95,0-29.83,20-36.41,60.29-46.9,21-5.55,49.4-14.19,49.4-51,0-30.44-18.48-46.28-46.29-46.28-28.39,0-47.26,17.27-48,37,2.14-8.64,9.92-19.75,24.12-19.75,15.17,0,25.09,12.35,25.09,26.95,0,15.22-11.28,27.15-25.87,27.15-14.39,0-27.61-10.69-27.61-31.47,0-28.38,25.08-48.1,69.43-48.1m.78,185.3c16.14,0,26.06-19.34,27-26.33v-80c-5.83,14.4-21.78,23.45-43.37,30.45-2.34,4.52-5.84,17.48-5.84,35.58,0,28.8,9.92,40.32,22.18,40.32m-.78-189.3c-22.21,0-40.77,4.89-53.68,14.15s-19.75,22.4-19.75,37.95c0,24.37,16.38,35.47,31.61,35.47,16.75,0,29.87-13.68,29.87-31.15,0-17.64-12.51-30.95-29.09-30.95a28.59,28.59,0,0,0-8.14,1.15c7.95-6.48,19.26-10.42,32.06-10.42,26.88,0,42.29,15.41,42.29,42.28,0,32.18-22.93,40.93-46.42,47.14-20.49,5.34-35.82,9.67-46.44,16.74-11.64,7.75-16.83,18.24-16.83,34,0,16.9,6.27,30.87,18.12,40.4,10.08,8.09,23.71,12.55,38.39,12.55a74.27,74.27,0,0,0,36.67-9.82,55.77,55.77,0,0,0,18.63-17,42.4,42.4,0,0,0,12.06,16.75c8,6.67,18.39,10.05,30.86,10.05,29.61,0,44.5-18.54,50.74-29.59l1.41-2.49-1.9-2.13-2.91-3.3-3.75-4.22-2.74,4.93c-4.86,8.74-9.84,13.17-14.79,13.17-1.61,0-4.95,0-4.95-7.52V346.31c0-63.69-31.58-97.35-91.32-97.35Zm-12.65,116.65c16.92-5.65,28.85-12.28,36.46-20.35v66.36c-1,5.6-9.55,22.64-23,22.64-11.55,0-18.18-13.24-18.18-36.32,0-15.47,2.64-27.14,4.75-32.33Z"/></g></g></svg>